# AST/ASF file generated using VICON BodyLanguage
# -----------------------------------------------
:version 1.10
:name VICON
:units
  mass 1.0
  length 0.45
  angle deg
:documentation
   .ast/.asf automatically generated from VICON data using
   VICON BodyBuilder and BodyLanguage model FoxedUp or BRILLIANT.MOD
:root
   order TX TY TZ RX RY RZ
   axis XYZ
   position 0 0 0  
   orientation 0 0 0 
:bonedata
  begin
     id 1 
     name lhipjoint
     direction 0.630082 -0.636569 0.44472 
     length 2.82754 
     axis 0 0 0  XYZ
  end
  begin
     id 2 
     name lfemur
     direction 0.34202 -0.939693 0  
     length 7.26371  
     axis 0 0 20  XYZ
    dof rx ry rz
    limits (-160.0 20.0)
           (-70.0 70.0)
           (-60.0 70.0)
  end
  begin
     id 3 
     name ltibia
     direction 0.34202 -0.939693 0   
     length 7.88616   
     axis 0 0 20   XYZ
    dof rx
    limits (-10.0 170.0)
  end
  begin
     id 4 
     name lfoot
     direction 0.0603448 -0.165796 0.984312   
     length 1.77861   
     axis -90 7.62852e-016 20   XYZ
    dof rx rz
    limits (-45.0 90.0)
           (-70.0 20.0)
  end
  begin
     id 5 
     name ltoes
     direction 1.53577e-011 -4.21876e-011 1   
     length 0.902235   
     axis -90 7.62852e-016 20   XYZ
    dof rx
    limits (-90.0 20.0)
  end
  begin
     id 6 
     name rhipjoint
     direction -0.656778 -0.61817 0.431866   
     length 2.9117  
     axis 0 0 0  XYZ 
  end
  begin
     id 7 
     name rfemur
     direction -0.34202 -0.939693 0   
     length 6.81603   
     axis 0 0 -20   XYZ
    dof rx ry rz
    limits (-160.0 20.0)
           (-70.0 70.0)
           (-70.0 60.0)
  end
  begin
     id 8 
     name rtibia
     direction -0.34202 -0.939693 0   
     length 8.05997   
     axis 0 0 -20   XYZ
    dof rx
    limits (-10.0 170.0)
 end
 begin
     id 9 
     name rfoot
     direction -0.0862404 -0.236944 0.967688   
     length 1.84899  
     axis -90 -7.62852e-016 -20   XYZ
    dof rx rz
    limits (-45.0 90.0)
           (-20.0 70.0)
  end
  begin
     id 10 
     name rtoes
     direction -1.53561e-011 -4.21798e-011 1   
     length 0.931579   
     axis -90 -7.62852e-016 -20   XYZ
    dof rx
    limits (-90.0 20.0)
  end
  begin
     id 11 
     name lowerback
     direction -0.0110203 0.991769 -0.127564   
     length 2.05686   
     axis 0 0 0   XYZ
    dof rx ry rz
    limits (-20.0 45.0)
           (-30.0 30.0)
           (-30.0 30.0)
  end
  begin
     id 12 
     name upperback
     direction 0.0109719 0.99993 -0.00432479   
     length 2.06234   
     axis 0 0 0   XYZ
    dof rx ry rz
    limits (-20.0 45.0)
           (-30.0 30.0)
           (-30.0 30.0)
  end
  begin
     id 13 
     name thorax
     direction 0.0173308 0.998351 0.0547306   
     length 2.09856   
     axis 0 0 0   XYZ
    dof rx ry rz
    limits (-20.0 45.0)
           (-30.0 30.0)
           (-30.0 30.0)
  end
  begin
     id 14 
     name lowerneck
     direction -0.0311736 0.989033 0.144366   
     length 1.98151   
     axis 0 0 0   XYZ
    dof rx ry rz
    limits (-20.0 45.0)
           (-30.0 30.0)
           (-30.0 30.0)
  end
  begin
     id 15 
     name upperneck
     direction 0.0421057 0.975772 -0.214698   
     length 2.01457   
     axis 0 0 0   XYZ
    dof rx ry rz
    limits (-20.0 45.0)
           (-30.0 30.0)
           (-30.0 30.0)
  end
  begin
     id 16
     name head
     direction 0.0136911 0.995958 -0.0887718  
     length 2.03562  
     axis 0 0 0   XYZ
    dof rx ry rz
    limits (-20.0 45.0)
           (-30.0 30.0)
           (-30.0 30.0)
  end
  begin
     id 17 
     name lclavicle
     direction 0.915335 0.396201 0.0720134  
     length 4.16217  
     axis 0 0 0   XYZ
    dof ry rz
    limits (-20.0 10.0)
           (0.0 20.0)
  end
  begin
     id 18 
     name lhumerus
     direction 1 -4.48965e-011 6.383e-018   
     length 4.93042   
     axis -180 -30 -90   XYZ
    dof rx ry rz
    limits (-60.0 90.0)
           (-90.0 90.0)
           (-90.0 90.0)
  end
  begin
     id 19
     name lradius
     direction 1 -4.48972e-011 8.8689e-027   
     length 3.68177   
     axis -180 -30 -90   XYZ
    dof rx
    limits (-10.0 170.0)
  end
  begin
     id 20
     name lwrist
     direction 1 -4.48953e-011 1.17971e-026   
     length 1.84089   
     axis -7.69454e-015 90 90   XYZ
    dof ry
    limits (-180.0 0.0)
 end
  begin
     id 21 
     name lhand
     direction 1 -4.49027e-011 2.35802e-026   
     length 0.721479   
     axis -1.50533e-014 90 90   XYZ
    dof rx rz
    limits (-90.0 90.0)
           (-45.0 45.0)
  end
  begin
     id 22 
     name lfingers
     direction 1 -4.48915e-011 4.72027e-026   
     length 0.581675   
     axis -3.01059e-014 90 90   XYZ
    dof rx
    limits (0.0 90.0)
  end
  begin
     id 23
     name lthumb
     direction 0.707107 -6.34948e-011 0.707107   
     length 0.835172   
     axis -90 45 -5.12164e-014   XYZ
    dof rx rz
    limits (-45.0 45.0)
           (-45.0 45.0)
  end
  begin
     id 24 
     name rclavicle
     direction -0.882781 0.469197 0.0234974   
     length 3.95647  
     axis 0 0 0   XYZ 
    dof ry rz
    limits (-10.0 20.0)
           (-20.0 0.0)
  end
  begin
     id 25 
     name rhumerus
     direction -1 -4.48965e-011 -1.54906e-018  
     length 5.07905   
     axis -180 30 90   XYZ
    dof rx ry rz
    limits (-90.0 60.0)
           (-90.0 90.0)
           (-90.0 90.0)
  end
  begin
     id 26 
     name rradius
     direction -1 -4.48972e-011 5.47489e-027   
     length 3.54394   
     axis -180 30 90   XYZ
    dof rx
    limits (-10.0 170.0)
  end
  begin
     id 27 
     name rwrist
     direction -1 -4.48955e-011 1.17969e-026   
     length 1.77197   
     axis -7.69454e-015 -90 -90   XYZ
    dof ry
    limits (-180.0 0.0)
  end
  begin
     id 28
     name rhand
     direction -1 -4.48982e-011 2.35888e-026   
     length 0.681156   
     axis -1.50533e-014 -90 -90   XYZ
    dof rx rz
    limits (-90.0 90.0)
           (-45.0 45.0)
  end
  begin
     id 29
     name rfingers
     direction -1 -4.48955e-011 4.71877e-026   
     length 0.549165   
     axis -3.01059e-014 -90 -90   XYZ
    dof rx
    limits (0.0 90.0)
  end
  begin
     id 30
     name rthumb
     direction -0.707107 -6.3491e-011 0.707107   
     length 0.788495   
     axis -90 -45 5.12164e-014   XYZ
    dof rx rz
    limits (-45.0 45.0)
           (-45.0 45.0)
  end
:hierarchy
  begin
    root lhipjoint rhipjoint lowerback
    lhipjoint lfemur
    lfemur ltibia
    ltibia lfoot
    lfoot ltoes
    rhipjoint rfemur
    rfemur rtibia
    rtibia rfoot
    rfoot rtoes
    lowerback upperback
    upperback thorax
    thorax lowerneck lclavicle rclavicle
    lowerneck upperneck
    upperneck head
    lclavicle lhumerus
    lhumerus lradius
    lradius lwrist
    lwrist lhand lthumb
    lhand lfingers
    rclavicle rhumerus
    rhumerus rradius
    rradius rwrist
    rwrist rhand rthumb
    rhand rfingers
  end

#!OML:ASF H:\Bending\Project 1\Capture day 1\Session 1\Subject.ASF
:FULLY-SPECIFIED
:DEGREES
126
root -10.8936 10.7764 -15.8633 -20.2803 95.0729 -20.7718
lowerback 57.2126 -3.35574 2.67884
upperback 5.00562 -0.567716 -0.0517076
thorax -15.9902 0.353057 -1.17182
lowerneck -20.5545 -4.98091 -9.4786
upperneck 8.55395 -5.09401 7.14615
head 6.34184 -2.19091 3.25736
rclavicle -1.98785e-015 -1.31198e-014
rhumerus 12.0905 -13.1913 -102.488
rradius 29.8907
rwrist 22.1398
rhand -35.8089 -11.4263
rfingers 7.12502
rthumb -8.9254 -41.2175
lclavicle -1.98785e-015 -1.31198e-014
lhumerus 24.0596 18.4929 116.66
lradius 28.6536
lwrist -6.17192
lhand -35.76 8.1223
lfingers 7.12502
lthumb -8.87817 37.9155
rfemur -75.6971 -67.5883 13.003
rtibia 126.326
rfoot -34.5213 16.151
rtoes -4.34665
lfemur -72.0751 36.2439 -10.5956
ltibia 119.287
lfoot -7.47052 -42.6975
ltoes 32.1877
127
root -10.9042 10.681 -15.8473 -19.4526 95.0874 -19.6688
lowerback 57.4572 -3.32545 2.74327
upperback 4.96608 -0.461974 -0.0173333
thorax -16.0529 0.396788 -1.21426
lowerneck -20.553 -5.06984 -9.57725
upperneck 8.67773 -5.23567 7.42727
head 6.40559 -2.24012 3.34847
rclavicle -5.96354e-015 -1.19271e-014
rhumerus 11.6582 -13.1743 -102.484
rradius 30.487
rwrist 22.3342
rhand -37.0852 -12.2734
rfingers 7.12502
rthumb -10.1568 -42.0083
lclavicle -5.96354e-015 -1.19271e-014
lhumerus 23.4233 17.9968 116.482
lradius 28.8818
lwrist -7.31709
lhand -34.5353 9.23931
lfingers 7.12502
lthumb -7.69631 39.0793
rfemur -75.8417 -69.2141 12.6664
rtibia 127.114
rfoot -34.8154 17.0858
rtoes -5.31509
lfemur -72.4825 36.9879 -10.2299
ltibia 120.038
lfoot -6.22871 -43.1073
ltoes 33.0081
128
root -10.9131 10.5969 -15.8306 -18.8079 95.0827 -18.7758
lowerback 57.6447 -3.25631 2.75205
upperback 4.92089 -0.350253 0.0281903
thorax -16.1185 0.442719 -1.22214
lowerneck -20.5601 -5.16809 -9.69814
upperneck 8.79878 -5.38521 7.72091
head 6.4722 -2.29235 3.4463
rclavicle 9.14409e-015 -4.37326e-015
rhumerus 11.1196 -13.0574 -102.423
rradius 31.3058
rwrist 23.0473
rhand -37.2217 -14.3316
rfingers 7.12502
rthumb -10.2885 -44.0599
lclavicle 9.14409e-015 -4.37326e-015
lhumerus 22.5577 17.2299 116.114
lradius 29.3593
lwrist -8.6207
lhand -33.9655 10.2143
lfingers 7.12502
lthumb -7.1463 40.0736
rfemur -75.8263 -70.6601 12.2525
rtibia 127.775
rfoot -35.0978 17.9852
rtoes -6.03183
lfemur -72.8376 37.6993 -9.85493
ltibia 120.692
lfoot -4.82238 -43.4763
ltoes 33.7513
129
root -10.9204 10.5241 -15.8137 -17.9079 95.0658 -17.6207
lowerback 57.8219 -3.19304 2.74304
upperback 4.86928 -0.257181 0.0818131
thorax -16.1916 0.480681 -1.20334
lowerneck -20.587 -5.24722 -9.78894
upperneck 8.90509 -5.50607 7.95657
head 6.53251 -2.33374 3.52359
rclavicle 8.74653e-015 1.94809e-014
rhumerus 10.4757 -12.8467 -102.34
rradius 32.2905
rwrist 23.9933
rhand -36.462 -16.7322
rfingers 7.12502
rthumb -9.55557 -46.4955
lclavicle 8.74653e-015 1.94809e-014
lhumerus 21.5748 16.3944 115.626
lradius 30.1094
lwrist -9.82425
lhand -33.9364 11.1241
lfingers 7.12502
lthumb -7.11818 40.9844
rfemur -75.4845 -71.9468 11.6163
rtibia 128.314
rfoot -35.3043 18.9416
rtoes -6.44894
lfemur -73.1131 38.3753 -9.40028
ltibia 121.258
lfoot -3.09494 -43.8054
ltoes 34.5652
130
root -10.9261 10.4614 -15.7971 -16.4991 95.0494 -15.9254
lowerback 58.0139 -3.17415 2.74981
upperback 4.81609 -0.205279 0.133507
thorax -16.2682 0.501584 -1.17287
lowerneck -20.6424 -5.28684 -9.81209
upperneck 8.994 -5.57364 8.09412
head 6.58191 -2.35433 3.56401
rclavicle -2.42517e-014 -1.07344e-014
rhumerus 9.75649 -12.5722 -102.264
rradius 33.3421
rwrist 24.8475
rhand -35.1427 -18.5919
rfingers 7.12502
rthumb -8.28248 -48.4096
lclavicle -2.42517e-014 -1.07344e-014
lhumerus 20.603 15.6881 115.094
lradius 31.0679
lwrist -10.6692
lhand -34.1669 12.0153
lfingers 7.12502
lthumb -7.34064 41.868
rfemur -74.7075 -73.1393 10.6303
rtibia 128.758
rfoot -35.3827 20.0197
rtoes -6.66979
lfemur -73.2946 39.0093 -8.8239
ltibia 121.743
lfoot -1.00692 -44.0826
ltoes 35.4703
131
root -10.9304 10.4072 -15.7815 -14.6306 95.0466 -13.7323
lowerback 58.2154 -3.218 2.78942
upperback 4.77137 -0.206705 0.170337
thorax -16.3354 0.500903 -1.14696
lowerneck -20.7246 -5.28125 -9.75998
upperneck 9.0685 -5.58246 8.13315
head 6.62001 -2.35141 3.56688
rclavicle -9.93923e-015 5.56597e-015
rhumerus 9.0243 -12.2702 -102.202
rradius 34.3306
rwrist 25.3834
rhand -33.583 -19.4418
rfingers 7.12502
rthumb -6.77708 -49.3134
lclavicle -9.93923e-015 5.56597e-015
lhumerus 19.7548 15.2262 114.572
lradius 32.0865
lwrist -10.9923
lhand -34.3397 12.8512
lfingers 7.12502
lthumb -7.50749 42.698
rfemur -73.4737 -74.3102 9.22497
rtibia 129.148
rfoot -35.3176 21.218
rtoes -6.88274
lfemur -73.3831 39.5881 -8.13343
ltibia 122.156
lfoot 1.30284 -44.2979
ltoes 36.3266
